name ./resultDataOpenSim/trcMotMarkerGrf/sub09/grf-15-02.mot
datacolumns 19
datarows 22
range 0.51200000 0.59600000
endheader

                time	     ground_force_vx	     ground_force_vy	     ground_force_vz	     ground_force_px	     ground_force_py	     ground_force_pz	   l_ground_force_vx	   l_ground_force_vy	   l_ground_force_vz	   l_ground_force_px	   l_ground_force_py	   l_ground_force_pz	     ground_torque_x	     ground_torque_y	     ground_torque_z	   l_ground_torque_x	   l_ground_torque_y	   l_ground_torque_z	
          0.51200000	         35.99554420	        535.08434005	        -12.05547169	         -0.66948029	          0.00000000	          0.08589358	          0.00000000	          0.00000000	          0.00000000	          0.00000000	          0.00000000	          0.00000000	          0.00000000	          7.41367949	          0.00000000	          0.00000000	          0.00000000	          0.00000000	
          0.51600000	         37.55575796	        541.55525484	        -14.78057967	         -0.66774559	          0.00000000	          0.08665828	          0.00000000	          0.00000000	          0.00000000	          0.00000000	          0.00000000	          0.00000000	          0.00000000	          7.36221376	          0.00000000	          0.00000000	          0.00000000	          0.00000000	
          0.52000000	         39.79131050	        547.76472184	        -18.27867698	         -0.66606371	          0.00000000	          0.08751182	          0.00000000	          0.00000000	          0.00000000	          0.00000000	          0.00000000	          0.00000000	          0.00000000	          7.16852131	          0.00000000	          0.00000000	          0.00000000	          0.00000000	
          0.52400000	         42.79229079	        553.61677181	        -22.21752907	         -0.66428760	          0.00000000	          0.08846042	          0.00000000	          0.00000000	          0.00000000	          0.00000000	          0.00000000	          0.00000000	          0.00000000	          6.86968788	          0.00000000	          0.00000000	          0.00000000	          0.00000000	
          0.52800000	         46.44702772	        559.05959751	        -26.20801510	         -0.66225177	          0.00000000	          0.08950172	          0.00000000	          0.00000000	          0.00000000	          0.00000000	          0.00000000	          0.00000000	          0.00000000	          6.51861151	          0.00000000	          0.00000000	          0.00000000	          0.00000000	
          0.53200000	         50.50045311	        564.29639774	        -29.86913688	         -0.65995358	          0.00000000	          0.09057706	          0.00000000	          0.00000000	          0.00000000	          0.00000000	          0.00000000	          0.00000000	          0.00000000	          6.17345199	          0.00000000	          0.00000000	          0.00000000	          0.00000000	
          0.53600000	         54.61823959	        569.75539409	        -32.88792374	         -0.65755686	          0.00000000	          0.09158176	          0.00000000	          0.00000000	          0.00000000	          0.00000000	          0.00000000	          0.00000000	          0.00000000	          5.88553108	          0.00000000	          0.00000000	          0.00000000	          0.00000000	
          0.54000000	         58.45918802	        575.82971058	        -35.08309918	         -0.65519244	          0.00000000	          0.09243972	          0.00000000	          0.00000000	          0.00000000	          0.00000000	          0.00000000	          0.00000000	          0.00000000	          5.68831014	          0.00000000	          0.00000000	          0.00000000	          0.00000000	
          0.54400000	         61.75896185	        582.66232198	        -36.44271726	         -0.65282402	          0.00000000	          0.09314713	          0.00000000	          0.00000000	          0.00000000	          0.00000000	          0.00000000	          0.00000000	          0.00000000	          5.59014676	          0.00000000	          0.00000000	          0.00000000	          0.00000000	
          0.54800000	         64.41269460	        590.18097581	        -37.10809405	         -0.65033931	          0.00000000	          0.09374318	          0.00000000	          0.00000000	          0.00000000	          0.00000000	          0.00000000	          0.00000000	          0.00000000	          5.57276007	          0.00000000	          0.00000000	          0.00000000	          0.00000000	
          0.55200000	         66.52179272	        598.29047770	        -37.31983754	         -0.64770951	          0.00000000	          0.09425035	          0.00000000	          0.00000000	          0.00000000	          0.00000000	          0.00000000	          0.00000000	          0.00000000	          5.59593548	          0.00000000	          0.00000000	          0.00000000	          0.00000000	
          0.55600000	         68.37187265	        606.98860724	        -37.35010673	         -0.64505203	          0.00000000	          0.09464975	          0.00000000	          0.00000000	          0.00000000	          0.00000000	          0.00000000	          0.00000000	          0.00000000	          5.60754980	          0.00000000	          0.00000000	          0.00000000	          0.00000000	
          0.56000000	         70.33794906	        616.30130571	        -37.44185164	         -0.64253421	          0.00000000	          0.09491049	          0.00000000	          0.00000000	          0.00000000	          0.00000000	          0.00000000	          0.00000000	          0.00000000	          5.55686922	          0.00000000	          0.00000000	          0.00000000	          0.00000000	
          0.56400000	         72.75516434	        626.14751488	        -37.76097664	         -0.64022342	          0.00000000	          0.09502737	          0.00000000	          0.00000000	          0.00000000	          0.00000000	          0.00000000	          0.00000000	          0.00000000	          5.40832917	          0.00000000	          0.00000000	          0.00000000	          0.00000000	
          0.56800000	         75.81916442	        636.31697728	        -38.34605782	         -0.63806863	          0.00000000	          0.09501869	          0.00000000	          0.00000000	          0.00000000	          0.00000000	          0.00000000	          0.00000000	          0.00000000	          5.15267212	          0.00000000	          0.00000000	          0.00000000	          0.00000000	
          0.57200000	         79.55073461	        646.59647621	        -39.06326556	         -0.63601189	          0.00000000	          0.09489114	          0.00000000	          0.00000000	          0.00000000	          0.00000000	          0.00000000	          0.00000000	          0.00000000	          4.81254851	          0.00000000	          0.00000000	          0.00000000	          0.00000000	
          0.57600000	         83.80479546	        656.88208127	        -39.61286856	         -0.63406882	          0.00000000	          0.09461865	          0.00000000	          0.00000000	          0.00000000	          0.00000000	          0.00000000	          0.00000000	          0.00000000	          4.44068753	          0.00000000	          0.00000000	          0.00000000	          0.00000000	
          0.58000000	         88.30186291	        667.14800923	        -39.61029342	         -0.63228258	          0.00000000	          0.09416776	          0.00000000	          0.00000000	          0.00000000	          0.00000000	          0.00000000	          0.00000000	          0.00000000	          4.11049952	          0.00000000	          0.00000000	          0.00000000	          0.00000000	
          0.58400000	         92.69739357	        677.35413493	        -38.69979141	         -0.63062665	          0.00000000	          0.09353432	          0.00000000	          0.00000000	          0.00000000	          0.00000000	          0.00000000	          0.00000000	          0.00000000	          3.90098450	          0.00000000	          0.00000000	          0.00000000	          0.00000000	
          0.58800000	         96.69712700	        687.42865045	        -36.64293519	         -0.62901587	          0.00000000	          0.09275141	          0.00000000	          0.00000000	          0.00000000	          0.00000000	          0.00000000	          0.00000000	          0.00000000	          3.87933320	          0.00000000	          0.00000000	          0.00000000	          0.00000000	
          0.59200000	        100.17002806	        697.32131809	        -33.35804668	         -0.62740871	          0.00000000	          0.09185679	          0.00000000	          0.00000000	          0.00000000	          0.00000000	          0.00000000	          0.00000000	          0.00000000	          4.08511277	          0.00000000	          0.00000000	          0.00000000	          0.00000000	
          0.59600000	        103.20557279	        706.99464713	        -28.92675353	         -0.62585786	          0.00000000	          0.09087776	          0.00000000	          0.00000000	          0.00000000	          0.00000000	          0.00000000	          0.00000000	          0.00000000	          4.51951078	          0.00000000	          0.00000000	          0.00000000	          0.00000000	
